# xmcd
#
# Track frame offsets: 
#        150
#        13842
#        22068
#        44041
#        52739
#        86260
#        90247
#        112934
#        117725
#        139380
#        143610
#        149421
#        155935
#        162832
#        182228
#        186564
#        189918
#        192003
#        193710
#        210562
#        216946
#        227575
#        230147
#        242636
#        243584
#        246902
#        250245
#        269629
#        275655
#        294721
#        300119
#        303220
#        326049
#        332088
#
# Disc length: 4625 seconds
#
# Revision: 1
# Processed by: cddbd v1.5.2PL0 Copyright (c) Steve Scherf et al.
# Submitted via: ExactAudioCopy v0.99pb5
#
DISCID=03120f22
DTITLE=Lucinda Williams - LA [4 Sweet Old World]
DYEAR=2007
DGENRE=Folk/Rock
TTITLE0=Six Blocks Away
TTITLE1="I haven't done that in so long"
TTITLE2=Something About What Happens When We Talk
TTITLE3="Before I move on"
TTITLE4=He Never Got Enough Love
TTITLE5="I thought y'all would appreciate"
TTITLE6=Sweet Old World
TTITLE7="This is really special, too"
TTITLE8=Little Angel, Little Brother
TTITLE9="We're bringing out"
TTITLE10="And I want to say"
TTITLE11="Should I tell this story"
TTITLE12="This is a song, another true story"
TTITLE13=Piñeola
TTITLE14="And the other thing"
TTITLE15="Isn't that interesting"
TTITLE16="It's actually about"
TTITLE17=Lines Around Your Eyes [take 1]
TTITLE18=Lines Around Your Eyes
TTITLE19="You know, by the way"
TTITLE20="The band here"
TTITLE21="Good old capo"
TTITLE22=Prove My Love
TTITLE23="This is a song I wrote"
TTITLE24="I was pretty green"
TTITLE25=Sidewalks of the City [take 1]
TTITLE26=Sidewalks of the City
TTITLE27="This is really, I think, the most special"
TTITLE28=Memphis Pearl
TTITLE29="I'm really nervous about"
TTITLE30="Who's play, how many, who all, oh good"
TTITLE31=Hot Blood
TTITLE32="I dunno how those old blues guys"
TTITLE33=Which Will
EXTD=
EXTT0=
EXTT1=
EXTT2=
EXTT3=
EXTT4=
EXTT5=
EXTT6=
EXTT7=
EXTT8=
EXTT9=
EXTT10=
EXTT11=
EXTT12=
EXTT13=
EXTT14=
EXTT15=
EXTT16=
EXTT17=
EXTT18=
EXTT19=
EXTT20=
EXTT21=
EXTT22=
EXTT23=
EXTT24=
EXTT25=
EXTT26=
EXTT27=
EXTT28=
EXTT29=
EXTT30=
EXTT31=
EXTT32=
EXTT33=
PLAYORDER=
